<svg xmlns="http://www.w3.org/2000/svg" xlink="http://www.w3.org/1999/xlink" width="0" height="0" style="display:none;"><symbol viewBox="0 0 24 24" id="html5-fill"><path fill="none" d="M0 0h24v24H0z"/><path d="M12 18.178l4.62-1.256.623-6.778H9.026L8.822 7.89h8.626l.227-2.211H6.325l.636 6.678h7.82l-.261 2.866-2.52.667-2.52-.667-.158-1.844h-2.27l.329 3.544L12 18.178zM3 2h18l-1.623 18L12 22l-7.377-2L3 2z"/></symbol><symbol viewBox="0 0 24 24" id="css3-fill"><path fill="none" d="M0 0h24v24H0z"/><path d="M5 3l-.65 3.34h13.59L17.5 8.5H3.92l-.66 3.33h13.59l-.76 3.81-5.48 1.81-4.75-1.81.33-1.64H2.85l-.79 4 7.85 3 9.05-3 1.2-6.03.24-1.21L21.94 3z"/></symbol><symbol viewBox="0 0 24 24" id="award-fill"><path fill="none" d="M0 0h24v24H0z"/><path d="M17 15.245v6.872a.5.5 0 0 1-.757.429L12 20l-4.243 2.546a.5.5 0 0 1-.757-.43v-6.87a8 8 0 1 1 10 0zM12 15a6 6 0 1 0 0-12 6 6 0 0 0 0 12zm0-2a4 4 0 1 1 0-8 4 4 0 0 1 0 8z"/></symbol><symbol viewBox="0 0 24 24" id="medal-fill"><path fill="none" d="M0 0h24v24H0z"/><path d="M12 7a8 8 0 1 1 0 16 8 8 0 0 1 0-16zm0 3.5l-1.323 2.68-2.957.43 2.14 2.085-.505 2.946L12 17.25l2.645 1.39-.505-2.945 2.14-2.086-2.957-.43L12 10.5zm1-8.501L18 2v3l-1.363 1.138A9.935 9.935 0 0 0 13 5.049L13 2zm-2 0v3.05a9.935 9.935 0 0 0-3.636 1.088L6 5V2l5-.001z"/></symbol><symbol viewBox="0 0 24 24" id="medal-2-fill"><path fill="none" d="M0 0h24v24H0z"/><path d="M12 8.5l2.116 5.088 5.492.44-4.184 3.584 1.278 5.36L12 20.1l-4.702 2.872 1.278-5.36-4.184-3.584 5.492-.44L12 8.5zM8 2v9H6V2h2zm10 0v9h-2V2h2zm-5 0v5h-2V2h2z"/></symbol><symbol viewBox="0 0 24 24" id="mail-send-line"><path fill="none" d="M0 0h24v24H0z"/><path d="M22 20.007a1 1 0 0 1-.992.993H2.992A.993.993 0 0 1 2 20.007V19h18V7.3l-8 7.2-10-9V4a1 1 0 0 1 1-1h18a1 1 0 0 1 1 1v16.007zM4.434 5L12 11.81 19.566 5H4.434zM0 15h8v2H0v-2zm0-5h5v2H0v-2z"/></symbol><symbol viewBox="0 0 24 24" id="book-3-fill"><path fill="none" d="M0 0h24v24H0z"/><path d="M21 4H7a2 2 0 1 0 0 4h14v13a1 1 0 0 1-1 1H7a4 4 0 0 1-4-4V6a4 4 0 0 1 4-4h13a1 1 0 0 1 1 1v1zm-1 3H7a1 1 0 1 1 0-2h13v2z"/></symbol><symbol viewBox="0 0 24 24" id="file-excel-2-fill"><path fill="none" d="M0 0h24v24H0z"/><path d="M2.859 2.877l12.57-1.795a.5.5 0 0 1 .571.495v20.846a.5.5 0 0 1-.57.495L2.858 21.123a1 1 0 0 1-.859-.99V3.867a1 1 0 0 1 .859-.99zM17 3h4a1 1 0 0 1 1 1v16a1 1 0 0 1-1 1h-4V3zm-6.8 9L13 8h-2.4L9 10.286 7.4 8H5l2.8 4L5 16h2.4L9 13.714 10.6 16H13l-2.8-4z"/></symbol><symbol viewBox="0 0 24 24" id="file-ppt-2-fill"><path fill="none" d="M0 0h24v24H0z"/><path d="M17 3h4a1 1 0 0 1 1 1v16a1 1 0 0 1-1 1h-4V3zM2.859 2.877l12.57-1.795a.5.5 0 0 1 .571.495v20.846a.5.5 0 0 1-.57.495L2.858 21.123a1 1 0 0 1-.859-.99V3.867a1 1 0 0 1 .859-.99zM5 8v8h2v-2h6V8H5zm2 2h4v2H7v-2z"/></symbol><symbol viewBox="0 0 24 24" id="file-word-2-fill"><path fill="none" d="M0 0h24v24H0z"/><path d="M17 3h4a1 1 0 0 1 1 1v16a1 1 0 0 1-1 1h-4V3zM2.859 2.877l12.57-1.795a.5.5 0 0 1 .571.495v20.846a.5.5 0 0 1-.57.495L2.858 21.123a1 1 0 0 1-.859-.99V3.867a1 1 0 0 1 .859-.99zM11 8v4.989L9 11l-1.99 2L7 8H5v8h2l2-2 2 2h2V8h-2z"/></symbol><symbol viewBox="0 0 24 24" id="pinyin-input"><path fill="none" d="M0 0h24v24H0z"/><path d="M17.934 3.036l1.732 1L18.531 6H21v2h-2v4h2v2h-2v7h-2v-7h-3.084c-.325 2.862-1.564 5.394-3.37 7.193l-1.562-1.27c1.52-1.438 2.596-3.522 2.917-5.922L10 14v-2l2-.001V8h-2V6h2.467l-1.133-1.964 1.732-1L14.777 6h1.444l1.713-2.964zM5 13.803l-2 .536v-2.071l2-.536V8H3V6h2V3h2v3h2v2H7v3.197l2-.536v2.07l-2 .536V18.5A2.5 2.5 0 0 1 4.5 21H3v-2h1.5a.5.5 0 0 0 .492-.41L5 18.5v-4.697zM17 8h-3v4h3V8z"/></symbol><symbol viewBox="0 0 24 24" id="english-input"><path fill="none" d="M0 0h24v24H0z"/><path d="M14 10h2v.757a4.5 4.5 0 0 1 7 3.743V20h-2v-5.5c0-1.43-1.175-2.5-2.5-2.5S16 13.07 16 14.5V20h-2V10zm-2-6v2H4v5h8v2H4v5h8v2H2V4h10z"/></symbol><symbol viewBox="0 0 24 24" id="emphasis-cn"><path fill="none" d="M0 0h24v24H0z"/><path d="M12 19a1.5 1.5 0 1 1 0 3 1.5 1.5 0 0 1 0-3zm-5.5 0a1.5 1.5 0 1 1 0 3 1.5 1.5 0 0 1 0-3zm11 0a1.5 1.5 0 1 1 0 3 1.5 1.5 0 0 1 0-3zM13 2v2h6v2h-1.968a18.222 18.222 0 0 1-3.621 6.302 14.685 14.685 0 0 0 5.327 3.042l-.536 1.93A16.685 16.685 0 0 1 12 13.726a16.696 16.696 0 0 1-6.202 3.547l-.536-1.929a14.7 14.7 0 0 0 5.327-3.042 18.077 18.077 0 0 1-2.822-4.3h2.24A16.031 16.031 0 0 0 12 10.876a16.168 16.168 0 0 0 2.91-4.876L5 6V4h6V2h2z"/></symbol><symbol viewBox="0 0 24 24" id="price-tag-3-fill"><path fill="none" d="M0 0h24v24H0z"/><path d="M10.9 2.1l9.899 1.415 1.414 9.9-9.192 9.192a1 1 0 0 1-1.414 0l-9.9-9.9a1 1 0 0 1 0-1.414L10.9 2.1zm2.828 8.486a2 2 0 1 0 2.828-2.829 2 2 0 0 0-2.828 2.829z"/></symbol><symbol viewBox="0 0 24 24" id="wechat-fill"><path fill="none" d="M0 0h24v24H0z"/><path d="M18.574 13.711a.91.91 0 0 0 .898-.898c0-.498-.399-.898-.898-.898s-.898.4-.898.898c0 .5.4.898.898.898zm-4.425 0a.91.91 0 0 0 .898-.898c0-.498-.4-.898-.898-.898-.5 0-.898.4-.898.898 0 .5.399.898.898.898zm6.567 5.04a.347.347 0 0 0-.172.37c0 .048 0 .097.025.147.098.417.294 1.081.294 1.106 0 .073.025.122.025.172a.22.22 0 0 1-.221.22c-.05 0-.074-.024-.123-.048l-1.449-.836a.799.799 0 0 0-.344-.098c-.073 0-.147 0-.196.024-.688.197-1.4.295-2.161.295-3.66 0-6.607-2.457-6.607-5.505 0-3.047 2.947-5.505 6.607-5.505 3.659 0 6.606 2.458 6.606 5.505 0 1.647-.884 3.146-2.284 4.154zM16.673 8.099a9.105 9.105 0 0 0-.28-.005c-4.174 0-7.606 2.86-7.606 6.505 0 .554.08 1.09.228 1.6h-.089a9.963 9.963 0 0 1-2.584-.368c-.074-.025-.148-.025-.222-.025a.832.832 0 0 0-.418.123l-1.748 1.005c-.05.025-.099.05-.148.05a.273.273 0 0 1-.27-.27c0-.074.024-.123.049-.197.024-.024.246-.834.369-1.324 0-.05.024-.123.024-.172a.556.556 0 0 0-.221-.442C2.058 13.376 1 11.586 1 9.598 1 5.945 4.57 3 8.95 3c3.765 0 6.93 2.169 7.723 5.098zm-5.154.418c.573 0 1.026-.477 1.026-1.026 0-.573-.453-1.026-1.026-1.026s-1.026.453-1.026 1.026.453 1.026 1.026 1.026zm-5.26 0c.573 0 1.027-.477 1.027-1.026 0-.573-.454-1.026-1.027-1.026-.572 0-1.026.453-1.026 1.026s.454 1.026 1.026 1.026z"/></symbol><symbol viewBox="0 0 24 24" id="qq-fill"><path fill="none" d="M0 0h24v24H0z"/><path d="M19.913 14.529a31.977 31.977 0 0 0-.675-1.886l-.91-2.246c0-.026.012-.468.012-.696C18.34 5.86 16.507 2 12 2 7.493 2 5.66 5.86 5.66 9.7c0 .229.011.671.012.697l-.91 2.246c-.248.643-.495 1.312-.675 1.886-.86 2.737-.581 3.87-.369 3.895.455.054 1.771-2.06 1.771-2.06 0 1.224.637 2.822 2.016 3.976-.515.157-1.147.399-1.554.695-.365.267-.319.54-.253.65.289.481 4.955.307 6.303.157 1.347.15 6.014.324 6.302-.158.066-.11.112-.382-.253-.649-.407-.296-1.039-.538-1.555-.696 1.379-1.153 2.016-2.751 2.016-3.976 0 0 1.316 2.115 1.771 2.06.212-.025.49-1.157-.37-3.894"/></symbol><symbol viewBox="0 0 24 24" id="alipay-fill"><path fill="none" d="M0 0h24v24H0z"/><path d="M21.422 15.358c-3.83-1.153-6.055-1.84-6.678-2.062a12.41 12.41 0 0 0 1.32-3.32H12.8V8.872h4v-.68h-4V6.344h-1.536c-.28 0-.312.248-.312.248v1.592H7.2v.68h3.752v1.104H7.88v.616h6.224a10.972 10.972 0 0 1-.888 2.176c-1.408-.464-2.192-.784-3.912-.944-3.256-.312-4.008 1.48-4.128 2.576C5 16.064 6.48 17.424 8.688 17.424s3.68-1.024 5.08-2.72c1.167.558 3.338 1.525 6.514 2.902A9.99 9.99 0 0 1 12 22C6.477 22 2 17.523 2 12S6.477 2 12 2s10 4.477 10 10a9.983 9.983 0 0 1-.578 3.358zm-12.99 1.01c-2.336 0-2.704-1.48-2.584-2.096.12-.616.8-1.416 2.104-1.416 1.496 0 2.832.384 4.44 1.16-1.136 1.48-2.52 2.352-3.96 2.352z"/></symbol><symbol viewBox="0 0 24 24" id="menu-3-fill"><path fill="none" d="M0 0h24v24H0z"/><path d="M3 4h18v2H3V4zm6 7h12v2H9v-2zm-6 7h18v2H3v-2z"/></symbol><symbol viewBox="0 0 24 24" id="body-scan-fill"><path fill="none" d="M0 0h24v24H0z"/><path d="M4 16v4h4v2H2v-6h2zm18 0v6h-6v-2h4v-4h2zM7.5 7a4.5 4.5 0 0 0 9 0h2a6.5 6.5 0 0 1-3.499 5.767L15 19H9v-6.232A6.5 6.5 0 0 1 5.5 7h2zM12 5a2.5 2.5 0 1 1 0 5 2.5 2.5 0 0 1 0-5zM8 2v2l-4-.001V8H2V2h6zm14 0v6h-2V4h-4V2h6z"/></symbol><symbol viewBox="0 0 24 24" id="rss-fill"><path fill="none" d="M0 0h24v24H0z"/><path d="M3 3c9.941 0 18 8.059 18 18h-3c0-8.284-6.716-15-15-15V3zm0 7c6.075 0 11 4.925 11 11h-3a8 8 0 0 0-8-8v-3zm0 7a4 4 0 0 1 4 4H3v-4z"/></symbol><symbol viewBox="0 0 24 24" id="mail-send-fill"><path fill="none" d="M0 0h24v24H0z"/><path d="M2 5.5V3.993A1 1 0 0 1 2.992 3h18.016c.548 0 .992.445.992.993v16.014a1 1 0 0 1-.992.993H2.992A.993.993 0 0 1 2 20.007V19h18V7.3l-8 7.2-10-9zM0 10h5v2H0v-2zm0 5h8v2H0v-2z"/></symbol><symbol viewBox="0 0 24 24" id="github-fill"><path fill="none" d="M0 0h24v24H0z"/><path d="M12 2C6.475 2 2 6.475 2 12a9.994 9.994 0 0 0 6.838 9.488c.5.087.687-.213.687-.476 0-.237-.013-1.024-.013-1.862-2.512.463-3.162-.612-3.362-1.175-.113-.288-.6-1.175-1.025-1.413-.35-.187-.85-.65-.013-.662.788-.013 1.35.725 1.538 1.025.9 1.512 2.338 1.087 2.912.825.088-.65.35-1.087.638-1.337-2.225-.25-4.55-1.113-4.55-4.938 0-1.088.387-1.987 1.025-2.688-.1-.25-.45-1.275.1-2.65 0 0 .837-.262 2.75 1.026a9.28 9.28 0 0 1 2.5-.338c.85 0 1.7.112 2.5.337 1.912-1.3 2.75-1.024 2.75-1.024.55 1.375.2 2.4.1 2.65.637.7 1.025 1.587 1.025 2.687 0 3.838-2.337 4.688-4.562 4.938.362.312.675.912.675 1.85 0 1.337-.013 2.412-.013 2.75 0 .262.188.574.688.474A10.016 10.016 0 0 0 22 12c0-5.525-4.475-10-10-10z"/></symbol><symbol viewBox="0 0 24 24" id="folder-3-fill"><path fill="none" d="M0 0h24v24H0z"/><path d="M22 8v12a1 1 0 0 1-1 1H3a1 1 0 0 1-1-1V7h19a1 1 0 0 1 1 1zm-9.586-3H2V4a1 1 0 0 1 1-1h7.414l2 2z"/></symbol><symbol viewBox="0 0 24 24" id="time-fill"><path fill="none" d="M0 0h24v24H0z"/><path d="M12 22C6.477 22 2 17.523 2 12S6.477 2 12 2s10 4.477 10 10-4.477 10-10 10zm1-10V7h-2v7h6v-2h-4z"/></symbol><symbol viewBox="0 0 24 24" id="calendar-event-fill"><path fill="none" d="M0 0h24v24H0z"/><path d="M17 3h4a1 1 0 0 1 1 1v16a1 1 0 0 1-1 1H3a1 1 0 0 1-1-1V4a1 1 0 0 1 1-1h4V1h2v2h6V1h2v2zM4 9v10h16V9H4zm2 4h5v4H6v-4z"/></symbol></svg>